<svg width="422" height="422" viewBox="0 0 422 422" fill="none" xmlns="http://www.w3.org/2000/svg">
<rect width="422" height="422" rx="80" fill="url(#paint0_linear_2633_3251)"/>
<g style="mix-blend-mode:hard-light">
<path d="M306.993 79.5474H116.007C110.33 79.5474 105.729 84.149 105.729 89.8255V331.221C105.729 336.898 110.33 341.499 116.007 341.499H306.993C312.669 341.499 317.271 336.898 317.271 331.221V89.8255C317.271 84.149 312.669 79.5474 306.993 79.5474Z" fill="#AC58D1"/>
<path d="M228.179 150.793C187.814 150.793 157.914 194.382 157.914 194.382C157.914 194.382 175.48 218.909 198.513 230.169C198.513 230.169 210.473 238.064 226.637 238.064C236.075 238.064 245.045 235.635 256.023 230.169C277.794 219.33 296.575 194.382 296.575 194.382C260.976 149.112 228.226 150.793 228.226 150.793H228.179Z" fill="#D3DCE5"/>
<path d="M317.272 89.8255V117.016C276.44 113.605 275.879 79.5941 275.879 79.5941L306.994 79.5474C312.693 79.5474 317.272 84.1258 317.272 89.8255Z" fill="#EEAE65"/>
<path d="M178.47 79.5474V79.6875C178.47 79.6875 177.909 113.745 136.983 117.063H105.729V89.8255C105.729 84.1258 110.307 79.5474 116.007 79.5474H178.47Z" fill="#EEAE65"/>
<path d="M317.272 303.938V331.175C317.272 336.874 312.693 341.453 306.994 341.453H275.879V341.312C275.879 341.312 276.44 307.301 317.272 303.938Z" fill="#EEAE65"/>
<path d="M178.47 341.266V341.453H116.007C110.307 341.453 105.729 336.874 105.729 331.175V303.891H136.983C177.909 307.208 178.47 341.266 178.47 341.266Z" fill="#EEAE65"/>
<path d="M136.983 79.5474V341.453H116.007C110.307 341.453 105.729 336.874 105.729 331.175V89.8255C105.729 84.1258 110.307 79.5474 116.007 79.5474H136.983Z" fill="#704F98"/>
<path d="M115.914 174.573C119.652 167.892 127.547 156.259 140.535 149.439C142.591 148.364 142.637 145.514 140.628 144.393C133.948 140.655 122.455 132.853 115.821 120.052C114.746 117.997 111.896 117.903 110.775 119.912C107.365 126.266 99.983 136.731 85.874 144.44C83.9118 145.514 83.8651 148.364 85.874 149.439C92.4146 152.942 103.627 160.604 110.915 174.386C111.99 176.395 114.793 176.442 115.914 174.48V174.573Z" fill="#EEAE65"/>
<path d="M320.681 277.588C323.531 272.729 328.857 265.394 337.173 260.629C339.088 259.555 339.228 256.798 337.313 255.724C332.501 252.874 325.259 247.595 320.634 239.466C319.513 237.503 316.803 237.41 315.682 239.325C313.019 243.904 307.927 250.585 298.957 255.77C297.088 256.845 296.994 259.601 298.91 260.676C303.628 263.386 310.776 268.618 315.775 277.448C316.85 279.363 319.56 279.457 320.681 277.588Z" fill="#EEAE65"/>
<path d="M234.087 237.225C257.746 233.39 273.816 211.102 269.981 187.444C266.145 163.785 243.857 147.715 220.199 151.55C196.54 155.386 180.47 177.674 184.306 201.332C188.141 224.991 210.429 241.061 234.087 237.225Z" fill="#9EABC4"/>
<path d="M248.023 203.045C252.776 191.577 247.333 178.428 235.866 173.674C224.398 168.921 211.249 174.364 206.495 185.831C201.742 197.299 207.185 210.449 218.653 215.202C230.12 219.955 243.27 214.512 248.023 203.045Z" fill="#325068"/>
<path d="M285.128 263.246C285.128 265.815 283.026 267.917 280.457 267.917H173.938C171.368 267.917 169.266 265.815 169.266 263.246C169.266 260.676 171.368 258.574 173.938 258.574H280.457C283.026 258.574 285.128 260.676 285.128 263.246ZM280.457 281.933H173.938C171.368 281.933 169.266 284.035 169.266 286.605C169.266 289.174 171.368 291.277 173.938 291.277H280.457C283.026 291.277 285.128 289.174 285.128 286.605C285.128 284.035 283.026 281.933 280.457 281.933ZM346.984 258.34C346.984 260.256 345.769 261.984 343.947 262.638C329.091 268.198 322.597 284.082 322.55 284.222C322.41 284.596 322.176 284.923 321.99 285.203V331.175C321.99 339.444 315.262 346.125 307.04 346.125H116.007C107.737 346.125 101.057 339.397 101.057 331.175V168.033C91.3391 156.026 79.2857 151.588 79.1455 151.541C77.3235 150.887 76.1088 149.205 76.0621 147.336C75.9686 145.421 77.0899 143.646 78.8185 142.898C89.3769 138.226 96.4314 131.872 101.057 126.266V89.8722C101.057 81.603 107.784 74.9222 116.007 74.9222H306.993C315.262 74.9222 321.943 81.6497 321.943 89.8722V231.383C322.223 231.757 322.41 232.131 322.597 232.551C327.829 247.268 343.901 253.902 344.041 253.948C345.816 254.649 346.984 256.425 346.937 258.34H346.984ZM289.38 258.48C289.333 256.565 290.408 254.836 292.136 254.042C304.704 248.482 310.403 239.653 312.599 235.261V121.08C281.064 116.595 273.496 93.9835 271.767 84.2193H182.581C180.852 93.9368 173.331 116.689 141.655 121.174V139.628C145.159 141.683 147.588 142.711 147.635 142.711C149.411 143.412 150.578 145.187 150.578 147.103C150.578 149.018 149.364 150.747 147.542 151.401C145.439 152.195 143.524 153.129 141.655 154.204V299.733C173.424 304.218 180.899 327.063 182.581 336.781H271.72C273.449 327.063 280.971 304.358 312.599 299.826V281.419C305.685 267.637 292.557 262.732 292.417 262.685C290.641 262.031 289.38 260.349 289.333 258.433L289.38 258.48ZM141.655 111.737C165.108 107.859 171.462 92.1615 173.144 84.1726H141.655V111.737ZM141.655 336.781H173.144C171.462 328.839 165.201 313.048 141.655 309.123V336.781ZM306.993 84.2193H281.204C282.933 92.2082 289.286 107.812 312.599 111.69V89.8255C312.599 86.7421 310.076 84.2193 306.993 84.2193ZM110.4 89.8255V110.849C111.195 110.195 112.222 109.774 113.297 109.774C115.212 109.821 117.081 110.989 117.782 112.858C120.912 121.548 126.705 128.228 132.358 133.04V84.2193H116.053C112.97 84.2193 110.447 86.7421 110.447 89.8255H110.4ZM113.437 169.481C117.595 162.707 124.743 153.363 135.535 146.869C128.808 142.758 119.604 135.657 113.25 125.051C109.326 131.452 102.411 140.048 90.9186 146.963C97.5527 150.98 106.663 158.035 113.437 169.434V169.481ZM116.007 336.781H132.311V161.072C122.36 170.275 117.735 181.394 117.688 181.534C116.988 183.31 115.259 184.431 113.344 184.431C112.222 184.431 111.195 184.011 110.4 183.31V331.175C110.4 334.258 112.923 336.781 116.007 336.781ZM312.599 331.175V309.263C289.193 313.141 282.839 328.839 281.157 336.828H306.993C310.076 336.828 312.599 334.305 312.599 331.221V331.175ZM332.408 258.153C327.876 255.163 322.363 250.631 318.159 244.278C315.262 248.576 310.73 253.808 303.909 258.247C308.394 261.19 313.907 265.815 318.299 272.589C321.289 268.058 325.914 262.451 332.408 258.153ZM254.388 194.382C254.388 209.379 242.194 221.526 227.244 221.526C212.294 221.526 200.1 209.332 200.1 194.382C200.1 179.432 212.294 167.238 227.244 167.238C242.194 167.238 254.388 179.432 254.388 194.382ZM245.044 194.382C245.044 184.571 237.055 176.582 227.244 176.582C217.433 176.582 209.444 184.571 209.444 194.382C209.444 204.193 217.433 212.182 227.244 212.182C237.055 212.182 245.044 204.193 245.044 194.382ZM300.265 197.185C299.471 198.26 280.597 223.114 258.078 234.327C246.445 240.12 236.728 242.689 226.59 242.689C210.425 242.689 198.232 235.495 196.176 234.233C172.49 222.554 154.83 198.166 154.082 197.092C152.914 195.503 152.914 193.354 154.036 191.719C155.297 189.85 185.804 146.122 228.132 146.122H228.832C233.971 146.122 266.021 147.99 300.172 191.486C301.48 193.167 301.527 195.503 300.219 197.185H300.265ZM265.927 194.382C265.927 173.032 248.548 155.652 227.197 155.652C205.847 155.652 188.467 173.032 188.467 194.382C188.467 215.733 205.847 233.112 227.197 233.112C248.548 233.112 265.927 215.733 265.927 194.382ZM183.702 214.751C180.806 208.538 179.124 201.67 179.124 194.382C179.124 187.094 180.852 179.993 183.842 173.732C174.078 181.675 166.977 190.131 163.753 194.335C167.117 198.54 174.358 207.043 183.702 214.798V214.751ZM290.548 194.382C283.774 186.16 277.186 179.712 270.926 174.62C273.682 180.647 275.271 187.328 275.271 194.429C275.271 201.53 273.682 208.351 270.879 214.424C279.849 206.856 287.044 198.587 290.548 194.382ZM227.197 137.245C229.767 137.245 231.869 135.143 231.869 132.573V108.373C231.869 105.803 229.767 103.701 227.197 103.701C224.628 103.701 222.525 105.803 222.525 108.373V132.573C222.525 135.143 224.628 137.245 227.197 137.245ZM247.193 137.525C247.94 137.946 248.735 138.179 249.529 138.179C251.117 138.179 252.706 137.338 253.547 135.843L261.816 121.734C263.124 119.492 262.376 116.642 260.134 115.334C257.891 114.026 255.042 114.773 253.733 117.016L245.464 131.125C244.156 133.367 244.904 136.217 247.146 137.525H247.193ZM200.848 136.03C201.736 137.525 203.277 138.32 204.866 138.32C205.66 138.32 206.501 138.133 207.202 137.666C209.444 136.357 210.192 133.508 208.883 131.265L200.614 117.156C199.306 114.913 196.456 114.166 194.214 115.474C191.971 116.782 191.224 119.632 192.532 121.875L200.801 135.984L200.848 136.03Z" fill="#1A2C3D"/>
</g>
<defs>
<linearGradient id="paint0_linear_2633_3251" x1="211" y1="98" x2="211" y2="422" gradientUnits="userSpaceOnUse">
<stop stop-color="#7A3BD1"/>
<stop offset="1" stop-color="#3F1673"/>
</linearGradient>
</defs>
</svg>
